<mxfile host="Electron" modified="2023-09-29T13:19:42.178Z" agent="Mozilla/5.0 (X11; Linux x86_64) AppleWebKit/537.36 (KHTML, like Gecko) draw.io/22.0.0 Chrome/114.0.5735.289 Electron/25.8.3 Safari/537.36" etag="xKagxLwTMDtrwh73ZKFH" version="22.0.0" type="device">
  <diagram id="uvb0O5T_7JzTFSy0LZj3" name="Page-1">
    <mxGraphModel dx="880" dy="551" grid="1" gridSize="10" guides="1" tooltips="1" connect="1" arrows="1" fold="1" page="1" pageScale="1" pageWidth="850" pageHeight="1100" math="0" shadow="0">
      <root>
        <mxCell id="0" />
        <mxCell id="1" parent="0" />
        <mxCell id="78YnlJztHTjQWf5eVJvD-1" value="" style="ellipse;whiteSpace=wrap;html=1;aspect=fixed;" parent="1" vertex="1">
          <mxGeometry x="60" y="80" width="240" height="240" as="geometry" />
        </mxCell>
        <mxCell id="78YnlJztHTjQWf5eVJvD-2" value="" style="ellipse;whiteSpace=wrap;html=1;aspect=fixed;" parent="1" vertex="1">
          <mxGeometry x="330" y="170" width="80" height="80" as="geometry" />
        </mxCell>
        <mxCell id="78YnlJztHTjQWf5eVJvD-3" value="" style="ellipse;whiteSpace=wrap;html=1;aspect=fixed;" parent="1" vertex="1">
          <mxGeometry x="410" y="170" width="80" height="80" as="geometry" />
        </mxCell>
        <mxCell id="78YnlJztHTjQWf5eVJvD-4" value="" style="ellipse;whiteSpace=wrap;html=1;aspect=fixed;" parent="1" vertex="1">
          <mxGeometry x="450" y="240" width="80" height="80" as="geometry" />
        </mxCell>
        <mxCell id="78YnlJztHTjQWf5eVJvD-5" value="" style="ellipse;whiteSpace=wrap;html=1;aspect=fixed;" parent="1" vertex="1">
          <mxGeometry x="370" y="240" width="80" height="80" as="geometry" />
        </mxCell>
        <mxCell id="78YnlJztHTjQWf5eVJvD-6" value="" style="ellipse;whiteSpace=wrap;html=1;aspect=fixed;" parent="1" vertex="1">
          <mxGeometry x="490" y="170" width="80" height="80" as="geometry" />
        </mxCell>
        <mxCell id="78YnlJztHTjQWf5eVJvD-7" value="" style="ellipse;whiteSpace=wrap;html=1;aspect=fixed;" parent="1" vertex="1">
          <mxGeometry x="370" y="100" width="80" height="80" as="geometry" />
        </mxCell>
        <mxCell id="78YnlJztHTjQWf5eVJvD-8" value="" style="ellipse;whiteSpace=wrap;html=1;aspect=fixed;" parent="1" vertex="1">
          <mxGeometry x="450" y="100" width="80" height="80" as="geometry" />
        </mxCell>
        <mxCell id="78YnlJztHTjQWf5eVJvD-12" value="General" style="text;html=1;strokeColor=none;fillColor=none;align=center;verticalAlign=middle;whiteSpace=wrap;rounded=0;" parent="1" vertex="1">
          <mxGeometry x="150" y="40" width="60" height="30" as="geometry" />
        </mxCell>
        <mxCell id="78YnlJztHTjQWf5eVJvD-14" value="By parts" style="text;html=1;strokeColor=none;fillColor=none;align=center;verticalAlign=middle;whiteSpace=wrap;rounded=0;" parent="1" vertex="1">
          <mxGeometry x="425" y="40" width="60" height="30" as="geometry" />
        </mxCell>
      </root>
    </mxGraphModel>
  </diagram>
</mxfile>
